<?xml version="1.0" encoding="UTF-8"?>
<svg version="1.1" xmlns="http://www.w3.org/2000/svg" width="2048" height="2048">
<path d="M0 0 C675.84 0 1351.68 0 2048 0 C2048 675.84 2048 1351.68 2048 2048 C1372.16 2048 696.32 2048 0 2048 C0 1372.16 0 696.32 0 0 Z " fill="#FEFEFE" transform="translate(0,0)"/>
<path d="M0 0 C168.3 0 336.6 0 510 0 C510 171.6 510 343.2 510 520 C539.37 520 568.74 520 599 520 C599 506.8 599 493.6 599 480 C602.63 477.03 606.26 474.06 610 471 C612.25782172 468.97741856 614.48687095 466.95543262 616.6875 464.875 C617.7975114 463.83912996 618.90818462 462.80396864 620.01953125 461.76953125 C620.79611084 461.04564209 620.79611084 461.04564209 621.58837891 460.30712891 C624.66024658 457.46264957 627.82823696 454.73184385 631 452 C633.45963595 449.87650449 635.91760658 447.75109007 638.375 445.625 C639.03064941 445.05821533 639.68629883 444.49143066 640.36181641 443.9074707 C644.03036103 440.72962021 647.66102086 437.5179203 651.25 434.25 C654.52149835 431.28032028 657.86969572 428.45660445 661.3125 425.6875 C666.12745744 421.79614512 670.65087171 417.66870856 675.16552734 413.43994141 C678.49102233 410.34263774 681.88692543 407.40400241 685.4375 404.5625 C691.15073515 399.97687705 696.45201937 395.00254458 701.79296875 389.99609375 C706.45191319 385.63009707 711.27070803 381.46824167 716.13671875 377.3359375 C722.66328275 371.78300996 729.06125111 366.1397901 735.31958008 360.28588867 C738.57331665 357.2616298 741.90240919 354.39999502 745.375 351.625 C749.95801372 347.95057209 754.23596107 344.03317481 758.5 340 C763.61007927 335.16686895 768.82471682 330.59848538 774.32421875 326.20703125 C777.3149611 323.74021456 780.16366858 321.14034691 783 318.5 C786.70857382 315.04833828 790.48506258 311.73477561 794.4375 308.5625 C799.86052799 304.19743267 804.9311493 299.51333606 810.01953125 294.76953125 C813.60641497 291.4260153 817.28480633 288.1999014 821 285 C823.45963595 282.87650449 825.91760658 280.75109007 828.375 278.625 C829.03064941 278.05821533 829.68629883 277.49143066 830.36181641 276.9074707 C834.03036103 273.72962021 837.66102086 270.5179203 841.25 267.25 C844.52149835 264.28032028 847.86969572 261.45660445 851.3125 258.6875 C856.12213393 254.80044748 860.64210063 250.67904282 865.15014648 246.453125 C869.46824574 242.4289884 873.98233451 238.70654133 878.5859375 235.01171875 C880.68916189 233.25903175 882.60058933 231.46692526 884.5 229.5 C887.18967565 226.71494578 890.03968272 224.29501384 893.0625 221.875 C897.56035826 218.25943767 901.80089554 214.45721134 906 210.5 C910.93149581 205.85639187 915.9883468 201.48742907 921.27734375 197.25 C925.40692956 193.83731503 929.30883485 190.18979586 933.23828125 186.55078125 C939.61930419 180.65713489 946.25694005 175.05559673 952.85791016 169.41137695 C956.01013385 166.71438018 959.14507758 164.00151661 962.25 161.25 C975.05555556 150 975.05555556 150 977 150 C977 405.42 977 660.84 977 924 C973.45353672 922.58141469 970.9794283 921.48678925 967.91015625 919.453125 C967.13728271 918.94515381 966.36440918 918.43718262 965.56811523 917.91381836 C964.74126221 917.3647583 963.91440918 916.81569824 963.0625 916.25 C961.26364227 915.06806407 959.46413998 913.88710868 957.6640625 912.70703125 C956.73239258 912.09553223 955.80072266 911.4840332 954.84082031 910.85400391 C950.22992379 907.84479557 945.58546244 904.88902389 940.9375 901.9375 C940.01445068 901.35121826 939.09140137 900.76493652 938.14038086 900.16088867 C935.42771774 898.4393313 932.71404311 896.71938081 930 895 C929.19739746 894.49114258 928.39479492 893.98228516 927.56787109 893.45800781 C919.91304663 888.60638102 912.2483114 883.77194841 904.55078125 878.98828125 C903.45362793 878.30564209 902.35647461 877.62300293 901.22607422 876.91967773 C899.06644522 875.576924 896.90535589 874.23651562 894.74267578 872.89868164 C893.76411621 872.29016357 892.78555664 871.68164551 891.77734375 871.0546875 C890.90327881 870.51312012 890.02921387 869.97155273 889.12866211 869.41357422 C887 868 887 868 885 866 C885 815.84 885 765.68 885 714 C719.01 714 553.02 714 382 714 C382 600.48 382 486.96 382 370 C317.32 370 252.64 370 186 370 C186 553.15 186 736.3 186 925 C292.92 925 399.84 925 510 925 C510 958.33 510 991.66 510 1026 C341.7 1026 173.4 1026 0 1026 C0 687.42 0 348.84 0 0 Z " fill="#000000" transform="translate(534,511)"/>
<path d="M0 0 C64.68 0 129.36 0 196 0 C196 113.52 196 227.04 196 344 C361.99 344 527.98 344 699 344 C700 497 700 497 699 556 C575.58 556 452.16 556 325 556 C325 589 325 622 325 656 C324.67 656 324.34 656 324 656 C324 622.67 324 589.34 324 555 C217.08 555 110.16 555 0 555 C0 371.85 0 188.7 0 0 Z " fill="#C7C7C6" transform="translate(720,881)"/>
<path d="M0 0 C168.3 0 336.6 0 510 0 C510 171.6 510 343.2 510 520 C539.37 520 568.74 520 599 520 C599 506.8 599 493.6 599 480 C602.63 477.03 606.26 474.06 610 471 C612.25782172 468.97741856 614.48687095 466.95543262 616.6875 464.875 C617.7975114 463.83912996 618.90818462 462.80396864 620.01953125 461.76953125 C620.79611084 461.04564209 620.79611084 461.04564209 621.58837891 460.30712891 C624.66024658 457.46264957 627.82823696 454.73184385 631 452 C633.45963595 449.87650449 635.91760658 447.75109007 638.375 445.625 C639.03064941 445.05821533 639.68629883 444.49143066 640.36181641 443.9074707 C644.03036103 440.72962021 647.66102086 437.5179203 651.25 434.25 C654.52149835 431.28032028 657.86969572 428.45660445 661.3125 425.6875 C666.12745744 421.79614512 670.65087171 417.66870856 675.16552734 413.43994141 C678.49102233 410.34263774 681.88692543 407.40400241 685.4375 404.5625 C691.15073515 399.97687705 696.45201937 395.00254458 701.79296875 389.99609375 C706.45191319 385.63009707 711.27070803 381.46824167 716.13671875 377.3359375 C722.66328275 371.78300996 729.06125111 366.1397901 735.31958008 360.28588867 C738.57331665 357.2616298 741.90240919 354.39999502 745.375 351.625 C749.95801372 347.95057209 754.23596107 344.03317481 758.5 340 C763.61007927 335.16686895 768.82471682 330.59848538 774.32421875 326.20703125 C777.3149611 323.74021456 780.16366858 321.14034691 783 318.5 C786.70857382 315.04833828 790.48506258 311.73477561 794.4375 308.5625 C799.86052799 304.19743267 804.9311493 299.51333606 810.01953125 294.76953125 C813.60641497 291.4260153 817.28480633 288.1999014 821 285 C823.45963595 282.87650449 825.91760658 280.75109007 828.375 278.625 C829.03064941 278.05821533 829.68629883 277.49143066 830.36181641 276.9074707 C834.03036103 273.72962021 837.66102086 270.5179203 841.25 267.25 C844.52149835 264.28032028 847.86969572 261.45660445 851.3125 258.6875 C856.12213393 254.80044748 860.64210063 250.67904282 865.15014648 246.453125 C869.46824574 242.4289884 873.98233451 238.70654133 878.5859375 235.01171875 C880.68916189 233.25903175 882.60058933 231.46692526 884.5 229.5 C887.18967565 226.71494578 890.03968272 224.29501384 893.0625 221.875 C897.56035826 218.25943767 901.80089554 214.45721134 906 210.5 C910.93149581 205.85639187 915.9883468 201.48742907 921.27734375 197.25 C925.40692956 193.83731503 929.30883485 190.18979586 933.23828125 186.55078125 C939.61930419 180.65713489 946.25694005 175.05559673 952.85791016 169.41137695 C956.01013385 166.71438018 959.14507758 164.00151661 962.25 161.25 C975.05555556 150 975.05555556 150 977 150 C977 405.42 977 660.84 977 924 C973.45353672 922.58141469 970.9794283 921.48678925 967.91015625 919.453125 C967.13728271 918.94515381 966.36440918 918.43718262 965.56811523 917.91381836 C964.74126221 917.3647583 963.91440918 916.81569824 963.0625 916.25 C961.26364227 915.06806407 959.46413998 913.88710868 957.6640625 912.70703125 C956.73239258 912.09553223 955.80072266 911.4840332 954.84082031 910.85400391 C950.22992379 907.84479557 945.58546244 904.88902389 940.9375 901.9375 C940.01445068 901.35121826 939.09140137 900.76493652 938.14038086 900.16088867 C935.42771774 898.4393313 932.71404311 896.71938081 930 895 C929.19739746 894.49114258 928.39479492 893.98228516 927.56787109 893.45800781 C919.91304663 888.60638102 912.2483114 883.77194841 904.55078125 878.98828125 C903.45362793 878.30564209 902.35647461 877.62300293 901.22607422 876.91967773 C899.06644522 875.576924 896.90535589 874.23651562 894.74267578 872.89868164 C893.76411621 872.29016357 892.78555664 871.68164551 891.77734375 871.0546875 C890.90327881 870.51312012 890.02921387 869.97155273 889.12866211 869.41357422 C887 868 887 868 885 866 C885 815.84 885 765.68 885 714 C719.01 714 553.02 714 382 714 C382 600.48 382 486.96 382 370 C317.32 370 252.64 370 186 370 C186 553.15 186 736.3 186 925 C292.92 925 399.84 925 510 925 C510 958.33 510 991.66 510 1026 C341.7 1026 173.4 1026 0 1026 C0 687.42 0 348.84 0 0 Z M1 1 C1 338.92 1 676.84 1 1025 C168.64 1025 336.28 1025 509 1025 C509 992.66 509 960.32 509 927 C402.08 927 295.16 927 185 927 C185 742.86 185 558.72 185 369 C204.47 369 223.94 369 244 369 C244 355.14 244 341.28 244 327 C300.43 327 356.86 327 415 327 C415 454.38 415 581.76 415 713 C537.76 713 660.52 713 787 713 C787 649.64 787 586.28 787 521 C695.59 520.67 604.18 520.34 510 520 C509.505 263.095 509.505 263.095 509 1 C341.36 1 173.72 1 1 1 Z " fill="#666666" transform="translate(534,511)"/>
<path d="M0 0 C168.3 0 336.6 0 510 0 C510 171.6 510 343.2 510 520 C601.74 520 693.48 520 788 520 C788 571.81 788 623.62 788 677 C834.53 677 881.06 677 929 677 C929 747.62 929 818.24 929 891 C925 892 925 892 922.79614258 891.00292969 C921.60734497 890.22030762 921.60734497 890.22030762 920.39453125 889.421875 C919.05394653 888.55308716 919.05394653 888.55308716 917.6862793 887.66674805 C916.73793213 887.03422119 915.78958496 886.40169434 914.8125 885.75 C913.84030518 885.11553955 912.86811035 884.4810791 911.86645508 883.82739258 C909.87288419 882.52547872 907.88257072 881.21856357 905.89550781 879.90673828 C903.20932858 878.13784622 900.51129949 876.38975986 897.8046875 874.65234375 C886.20412934 867.20412934 886.20412934 867.20412934 885 866 C885 815.84 885 765.68 885 714 C719.01 714 553.02 714 382 714 C382 600.48 382 486.96 382 370 C317.32 370 252.64 370 186 370 C186 553.15 186 736.3 186 925 C292.92 925 399.84 925 510 925 C510 958.33 510 991.66 510 1026 C341.7 1026 173.4 1026 0 1026 C0 687.42 0 348.84 0 0 Z M1 1 C1 338.92 1 676.84 1 1025 C168.64 1025 336.28 1025 509 1025 C509 992.66 509 960.32 509 927 C402.08 927 295.16 927 185 927 C185 742.86 185 558.72 185 369 C204.47 369 223.94 369 244 369 C244 355.14 244 341.28 244 327 C300.43 327 356.86 327 415 327 C415 454.38 415 581.76 415 713 C537.76 713 660.52 713 787 713 C787 649.64 787 586.28 787 521 C695.59 520.67 604.18 520.34 510 520 C509.505 263.095 509.505 263.095 509 1 C341.36 1 173.72 1 1 1 Z " fill="#4C4C4C" transform="translate(534,511)"/>
<path d="M0 0 C0.33 0 0.66 0 1 0 C1 171.27 1 342.54 1 519 C28.06 518.67 55.12 518.34 83 518 C76.68676475 513.40855618 70.63823741 509.05195397 64.07128906 504.93798828 C60.43468044 502.64328246 56.83680445 500.29334207 53.2421875 497.93359375 C52.56214661 497.48730621 51.88210571 497.04101868 51.18145752 496.58120728 C49.78499487 495.66422775 48.38873631 494.74693733 46.99267578 493.8293457 C44.87197533 492.43551203 42.75050433 491.04285752 40.62890625 489.65039062 C37.93883778 487.88472607 35.25129418 486.11531318 32.56542969 484.34326172 C30.38757131 482.90745793 28.20199622 481.48911626 26.00488281 480.08251953 C24.76883301 479.28563721 24.76883301 479.28563721 23.5078125 478.47265625 C22.81574707 478.0331665 22.12368164 477.59367676 21.41064453 477.14086914 C20.94513184 476.76438232 20.47961914 476.38789551 20 476 C20 474 20 474 21.3984375 472.58984375 C22.37683594 471.77193359 22.37683594 471.77193359 23.375 470.9375 C26.62941067 468.17182591 29.83413833 465.36691808 33 462.5 C43.04357146 453.44556816 53.33208597 444.67429692 63.62890625 435.91015625 C69.05479877 431.28543704 74.43726632 426.63764374 79.6875 421.8125 C83.11898144 418.66073175 86.61146509 415.65975619 90.25 412.75 C95.56571158 408.46705524 100.49476347 403.84268961 105.44995117 399.15551758 C109.87082579 394.99532231 114.44526802 391.12688123 119.19140625 387.33984375 C122.58237534 384.51482221 125.78790445 381.52498319 129 378.5 C133.91303994 373.87377536 138.95122197 369.52728932 144.22265625 365.30859375 C147.42442929 362.64720435 150.46233425 359.84536335 153.5 357 C158.26086655 352.54123309 163.16468077 348.36201964 168.25390625 344.27734375 C171.26318958 341.7817361 174.13940286 339.16236519 177 336.5 C180.70861688 333.04838064 184.48505895 329.73477852 188.4375 326.5625 C193.85908343 322.19859541 198.92842117 317.5157847 204.015625 312.7734375 C208.63353761 308.46894486 213.40761607 304.35687595 218.2109375 300.26171875 C224.75655431 294.67681067 231.22039507 289.03446039 237.56640625 283.22265625 C242.037065 279.13950243 246.61141889 275.18157621 251.21875 271.25390625 C252.41680775 270.2319362 253.6147201 269.20979569 254.8125 268.1875 C255.41852051 267.67034424 256.02454102 267.15318848 256.64892578 266.62036133 C260.39032262 263.4152347 264.06098478 260.14806271 267.6875 256.8125 C271.18259889 253.60354956 274.7428384 250.53934163 278.4375 247.5625 C282.97477021 243.90299472 287.26030973 240.05004979 291.52368164 236.08178711 C294.71306313 233.13082563 297.9835583 230.34014247 301.375 227.625 C306.41416406 223.57333783 311.10465771 219.22645384 315.80810547 214.79736328 C320.101263 210.77656357 324.56246351 207.05002919 329.15625 203.375 C332.55635299 200.53535355 335.77583754 197.53609357 339 194.5 C343.93169656 189.85659747 348.98832805 185.4874441 354.27734375 181.25 C358.40692956 177.83731503 362.30883485 174.18979586 366.23828125 170.55078125 C372.77473789 164.51357307 379.57748017 158.77764326 386.34130859 152.99829102 C389.23678429 150.57177489 389.23678429 150.57177489 392 148 C417.08 148 442.16 148 468 148 C468 404.41 468 660.82 468 925 C467.34 924.67 466.68 924.34 466 924 C466 668.91 466 413.82 466 151 C459.65747502 156.18933862 453.54598497 161.26673181 447.51953125 166.76171875 C444.96795083 169.02847158 442.34828468 171.17540087 439.6875 173.3125 C434.87334412 177.20320708 430.35075666 181.33000466 425.83666992 185.55786133 C422.48935757 188.67524726 419.07013212 191.63559167 415.5 194.5 C410.09563218 198.83927344 405.05044877 203.50396415 399.984375 208.2265625 C395.39057649 212.50857767 390.6456864 216.60355969 385.859375 220.66796875 C378.71889643 226.7416288 371.74233219 232.94727772 364.87890625 239.33203125 C358.62445108 245.12822241 352.11017445 250.62409762 345.6340332 256.16918945 C336.0701242 264.36084683 326.52356717 272.567608 317.19140625 281.0234375 C314.50531506 283.44618642 311.78009677 285.82151904 309.05078125 288.1953125 C306.73911203 290.22958141 304.4646857 292.3022231 302.1875 294.375 C298.74621795 297.48528851 295.23678702 300.46478312 291.625 303.375 C287.06978862 307.05766385 282.76087444 310.93026302 278.4765625 314.91796875 C275.28711489 317.86902981 272.01653207 320.65978518 268.625 323.375 C262.89477513 327.98571639 257.56914922 332.97756638 252.20703125 338.00390625 C247.56011109 342.35863472 242.75613479 346.51218906 237.8984375 350.62890625 C231.74389679 355.85700373 225.69571882 361.15445348 219.8125 366.6875 C214.98407361 371.2285359 210.02205429 375.48235657 204.84375 379.625 C200.80910089 382.99459705 197.01485811 386.60249644 193.18920898 390.20532227 C189.74856433 393.42784161 186.25010395 396.49508793 182.5625 399.4375 C177.99730863 403.08830841 173.74305471 406.98644318 169.5 411 C164.36793412 415.85364664 159.13170524 420.44804611 153.609375 424.859375 C150.81568484 427.15120465 148.15791222 429.55231812 145.5 432 C141.98565879 435.23597755 138.41609555 438.32634807 134.6875 441.3125 C129.63163433 445.38748445 124.91812777 449.75231994 120.19433594 454.20019531 C115.89005032 458.23119296 111.42370992 461.97826114 106.8125 465.65625 C102.79858652 469.0011779 99.00913234 472.57657807 95.23803711 476.19165039 C91.21146529 480 91.21146529 480 89 480 C89 493.2 89 506.4 89 520 C59.63 520 30.26 520 0 520 C0 348.4 0 176.8 0 0 Z " fill="#C7C7C7" transform="translate(1044,511)"/>
<path d="M0 0 C0.33 0 0.66 0 1 0 C1 171.27 1 342.54 1 519 C47.649465 527.85143313 47.649465 527.85143313 86 517 C86.15980437 514.55391002 86.25929447 512.13268942 86.31640625 509.68359375 C86.3475779 508.58701195 86.3475779 508.58701195 86.37937927 507.46827698 C86.44495024 505.12478344 86.50379432 502.78117461 86.5625 500.4375 C86.60567808 498.85220145 86.64929213 497.26691471 86.69335938 495.68164062 C86.8006392 491.78787963 86.9018849 487.89400228 87 484 C87.33 484 87.66 484 88 484 C88 495.88 88 507.76 88 520 C58.96 520 29.92 520 0 520 C0 348.4 0 176.8 0 0 Z " fill="#E1E1E0" transform="translate(1044,511)"/>
</svg>
